<mxfile host="65bd71144e">
    <diagram id="uH7TFUyroTzwectZcCgI" name="ページ1">
        <mxGraphModel dx="2264" dy="840" grid="0" gridSize="10" guides="1" tooltips="1" connect="1" arrows="1" fold="1" page="0" pageScale="1" pageWidth="827" pageHeight="1169" background="#524F4F" math="0" shadow="0">
            <root>
                <mxCell id="0"/>
                <mxCell id="1" parent="0"/>
                <mxCell id="49" value="" style="group;resizeWidth=0;resizeHeight=0;" parent="1" vertex="1" connectable="0">
                    <mxGeometry x="-490" y="390" width="190" height="116" as="geometry"/>
                </mxCell>
                <object label="BaseRenderContext" id="50">
                    <mxCell style="swimlane;fontStyle=0;childLayout=stackLayout;horizontal=1;startSize=30;horizontalStack=0;resizeParent=1;resizeParentMax=0;resizeLast=0;collapsible=1;marginBottom=0;whiteSpace=wrap;html=1;fillColor=#647687;fontColor=#ffffff;strokeColor=#314354;" parent="49" vertex="1">
                        <mxGeometry width="190.47" height="115.71571428571428" as="geometry"/>
                    </mxCell>
                </object>
                <mxCell id="52" value="・描画カウント" style="text;align=left;verticalAlign=middle;spacingLeft=4;spacingRight=4;overflow=hidden;points=[[0,0.5],[1,0.5]];portConstraint=eastwest;rotatable=0;whiteSpace=wrap;html=1;fillColor=#303030;fontColor=#FFFFFF;" parent="50" vertex="1">
                    <mxGeometry y="30" width="190.47" height="24.285714285714285" as="geometry"/>
                </mxCell>
                <mxCell id="54" value="# モデルデータ&lt;br&gt;# GraphicPipeline&lt;br&gt;# DrawCount" style="text;align=left;verticalAlign=middle;spacingLeft=4;spacingRight=4;overflow=hidden;points=[[0,0.5],[1,0.5]];portConstraint=eastwest;rotatable=0;whiteSpace=wrap;html=1;fillColor=#303030;fontColor=#FFFFFF;strokeColor=default;" parent="50" vertex="1">
                    <mxGeometry y="54.285714285714285" width="190.47" height="61.43" as="geometry"/>
                </mxCell>
                <object label="template&amp;lt;T&amp;gt; RenderContext" id="59">
                    <mxCell style="swimlane;fontStyle=0;childLayout=stackLayout;horizontal=1;startSize=30;horizontalStack=0;resizeParent=1;resizeParentMax=0;resizeLast=0;collapsible=1;marginBottom=0;whiteSpace=wrap;html=1;fillColor=#647687;fontColor=#ffffff;strokeColor=#314354;" parent="1" vertex="1">
                        <mxGeometry x="-720" y="605.71" width="190" height="114.28571428571428" as="geometry"/>
                    </mxCell>
                </object>
                <mxCell id="60" value="・描画データ保存、ZSort" style="text;align=left;verticalAlign=middle;spacingLeft=4;spacingRight=4;overflow=hidden;points=[[0,0.5],[1,0.5]];portConstraint=eastwest;rotatable=0;whiteSpace=wrap;html=1;fillColor=#303030;fontColor=#FFFFFF;" parent="59" vertex="1">
                    <mxGeometry y="30" width="190" height="30" as="geometry"/>
                </mxCell>
                <mxCell id="61" value="・描画コマンド発行" style="text;align=left;verticalAlign=middle;spacingLeft=4;spacingRight=4;overflow=hidden;points=[[0,0.5],[1,0.5]];portConstraint=eastwest;rotatable=0;whiteSpace=wrap;html=1;fillColor=#303030;fontColor=#FFFFFF;" parent="59" vertex="1">
                    <mxGeometry y="60" width="190" height="24.285714285714285" as="geometry"/>
                </mxCell>
                <mxCell id="62" value="-&amp;nbsp; 描画データ&amp;lt;T&amp;gt;" style="text;align=left;verticalAlign=middle;spacingLeft=4;spacingRight=4;overflow=hidden;points=[[0,0.5],[1,0.5]];portConstraint=eastwest;rotatable=0;whiteSpace=wrap;html=1;fillColor=#303030;fontColor=#FFFFFF;strokeColor=default;" parent="59" vertex="1">
                    <mxGeometry y="84.28571428571428" width="190" height="30" as="geometry"/>
                </mxCell>
                <object label="template&amp;lt;T&amp;gt; SkinRenderContext" id="63">
                    <mxCell style="swimlane;fontStyle=0;childLayout=stackLayout;horizontal=1;startSize=30;horizontalStack=0;resizeParent=1;resizeParentMax=0;resizeLast=0;collapsible=1;marginBottom=0;whiteSpace=wrap;html=1;fillColor=#647687;fontColor=#ffffff;strokeColor=#314354;" parent="1" vertex="1">
                        <mxGeometry x="-489.53" y="602.86" width="190" height="119.99571428571429" as="geometry"/>
                    </mxCell>
                </object>
                <mxCell id="64" value="・描画データ保存、ZSort" style="text;align=left;verticalAlign=middle;spacingLeft=4;spacingRight=4;overflow=hidden;points=[[0,0.5],[1,0.5]];portConstraint=eastwest;rotatable=0;whiteSpace=wrap;html=1;fillColor=#303030;fontColor=#FFFFFF;" parent="63" vertex="1">
                    <mxGeometry y="30" width="190" height="30" as="geometry"/>
                </mxCell>
                <mxCell id="65" value="・描画コマンド発行" style="text;align=left;verticalAlign=middle;spacingLeft=4;spacingRight=4;overflow=hidden;points=[[0,0.5],[1,0.5]];portConstraint=eastwest;rotatable=0;whiteSpace=wrap;html=1;fillColor=#303030;fontColor=#FFFFFF;" parent="63" vertex="1">
                    <mxGeometry y="60" width="190" height="24.285714285714285" as="geometry"/>
                </mxCell>
                <mxCell id="66" value="- 描画データ&amp;lt;T&amp;gt;&lt;br&gt;-&amp;nbsp;SkinCluster" style="text;align=left;verticalAlign=middle;spacingLeft=4;spacingRight=4;overflow=hidden;points=[[0,0.5],[1,0.5]];portConstraint=eastwest;rotatable=0;whiteSpace=wrap;html=1;fillColor=#303030;fontColor=#FFFFFF;strokeColor=default;" parent="63" vertex="1">
                    <mxGeometry y="84.28571428571428" width="190" height="35.71" as="geometry"/>
                </mxCell>
                <object label="template&amp;lt;T&amp;gt; MeshRenderContext" id="67">
                    <mxCell style="swimlane;fontStyle=0;childLayout=stackLayout;horizontal=1;startSize=30;horizontalStack=0;resizeParent=1;resizeParentMax=0;resizeLast=0;collapsible=1;marginBottom=0;whiteSpace=wrap;html=1;fillColor=#647687;fontColor=#ffffff;strokeColor=#314354;" parent="1" vertex="1">
                        <mxGeometry x="-270" y="603" width="190" height="129.99571428571429" as="geometry"/>
                    </mxCell>
                </object>
                <mxCell id="68" value="・描画データ保存、ZSort" style="text;align=left;verticalAlign=middle;spacingLeft=4;spacingRight=4;overflow=hidden;points=[[0,0.5],[1,0.5]];portConstraint=eastwest;rotatable=0;whiteSpace=wrap;html=1;fillColor=#303030;fontColor=#FFFFFF;" parent="67" vertex="1">
                    <mxGeometry y="30" width="190" height="30" as="geometry"/>
                </mxCell>
                <mxCell id="69" value="・描画コマンド発行" style="text;align=left;verticalAlign=middle;spacingLeft=4;spacingRight=4;overflow=hidden;points=[[0,0.5],[1,0.5]];portConstraint=eastwest;rotatable=0;whiteSpace=wrap;html=1;fillColor=#303030;fontColor=#FFFFFF;" parent="67" vertex="1">
                    <mxGeometry y="60" width="190" height="24.285714285714285" as="geometry"/>
                </mxCell>
                <mxCell id="70" value="-&amp;nbsp; 描画データ&amp;lt;T&amp;gt;&lt;br&gt;- MeshShader用StructuredBuffer" style="text;align=left;verticalAlign=middle;spacingLeft=4;spacingRight=4;overflow=hidden;points=[[0,0.5],[1,0.5]];portConstraint=eastwest;rotatable=0;whiteSpace=wrap;html=1;fillColor=#303030;fontColor=#FFFFFF;gradientColor=none;strokeColor=default;" parent="67" vertex="1">
                    <mxGeometry y="84.28571428571428" width="190" height="45.71" as="geometry"/>
                </mxCell>
                <mxCell id="111" value="" style="endArrow=block;html=1;exitX=0.5;exitY=0;exitDx=0;exitDy=0;entryX=0.5;entryY=0.996;entryDx=0;entryDy=0;entryPerimeter=0;endFill=0;fontColor=#F0F0F0;strokeColor=#FCFCFC;" parent="1" source="63" target="54" edge="1">
                    <mxGeometry width="50" height="50" relative="1" as="geometry">
                        <mxPoint x="-350" y="530" as="sourcePoint"/>
                        <mxPoint x="-400" y="580" as="targetPoint"/>
                    </mxGeometry>
                </mxCell>
                <mxCell id="113" value="" style="endArrow=block;html=1;exitX=0.5;exitY=0;exitDx=0;exitDy=0;entryX=0.5;entryY=1.004;entryDx=0;entryDy=0;entryPerimeter=0;endFill=0;fontColor=#F0F0F0;strokeColor=#FFFFFF;" parent="1" source="67" target="54" edge="1">
                    <mxGeometry width="50" height="50" relative="1" as="geometry">
                        <mxPoint x="-384.52999999999975" y="612.86" as="sourcePoint"/>
                        <mxPoint x="-384.7649999999999" y="515.4699942857143" as="targetPoint"/>
                        <Array as="points">
                            <mxPoint x="-175" y="580"/>
                            <mxPoint x="-395" y="570"/>
                        </Array>
                    </mxGeometry>
                </mxCell>
                <mxCell id="114" value="" style="endArrow=block;html=1;exitX=0.5;exitY=0;exitDx=0;exitDy=0;entryX=0.5;entryY=1.012;entryDx=0;entryDy=0;entryPerimeter=0;endFill=0;fontColor=#F0F0F0;strokeColor=#FFFFFF;" parent="1" source="59" target="54" edge="1">
                    <mxGeometry width="50" height="50" relative="1" as="geometry">
                        <mxPoint x="-374.52999999999975" y="622.86" as="sourcePoint"/>
                        <mxPoint x="-374.7649999999999" y="525.4699942857143" as="targetPoint"/>
                        <Array as="points">
                            <mxPoint x="-625" y="580"/>
                            <mxPoint x="-395" y="570"/>
                        </Array>
                    </mxGeometry>
                </mxCell>
            </root>
        </mxGraphModel>
    </diagram>
</mxfile>